# xmcd CD database file
#
# Track frame offsets:
#	150
#	19398
#	42157
#
# Disc length: 815 seconds
#
# Revision: 0
# Processed by: cddbd v1.5.1PL2 Copyright (c) Steve Scherf et al.
# Submitted via: CDex 1.51
#
DISCID=1e032d03
DTITLE=WAX - 赤い糸
DYEAR=2006
DGENRE=Pop
TTITLE0=赤い糸
TTITLE1=恋におちて -Fall in love-
TTITLE2=赤い糸 （オリジナル・カラオケ）
EXTD=YEAR: 2006
EXTT0=
EXTT1=
EXTT2=
PLAYORDER=
